<mxfile host="app.diagrams.net" modified="2022-01-15T21:27:33.662Z" agent="5.0 (Macintosh; Intel Mac OS X 10_15_7) AppleWebKit/537.36 (KHTML, like Gecko) Chrome/97.0.4692.71 Safari/537.36" etag="kZ_yZHHW6GPNoEsgYOBk" version="16.2.7" type="github">
  <diagram id="AR_MfOo3Hp1RGb-NP4cN" name="Page-1">
    <mxGraphModel dx="676" dy="461" grid="1" gridSize="10" guides="1" tooltips="1" connect="1" arrows="1" fold="1" page="1" pageScale="1" pageWidth="850" pageHeight="1100" math="0" shadow="0">
      <root>
        <mxCell id="0" />
        <mxCell id="1" parent="0" />
        <mxCell id="UZTgPrUg466q5XbxoCcg-1" value="" style="shape=umlActor;verticalLabelPosition=bottom;verticalAlign=top;html=1;outlineConnect=0;" vertex="1" parent="1">
          <mxGeometry x="40" y="40" width="30" height="60" as="geometry" />
        </mxCell>
        <mxCell id="UZTgPrUg466q5XbxoCcg-2" value=":System" style="rounded=0;whiteSpace=wrap;html=1;" vertex="1" parent="1">
          <mxGeometry x="200" y="50" width="120" height="60" as="geometry" />
        </mxCell>
        <mxCell id="UZTgPrUg466q5XbxoCcg-3" value=":Blockchain" style="rounded=0;whiteSpace=wrap;html=1;" vertex="1" parent="1">
          <mxGeometry x="390" y="50" width="120" height="60" as="geometry" />
        </mxCell>
        <mxCell id="UZTgPrUg466q5XbxoCcg-5" value="" style="endArrow=none;dashed=1;html=1;rounded=0;entryX=0.5;entryY=1;entryDx=0;entryDy=0;" edge="1" parent="1" target="UZTgPrUg466q5XbxoCcg-2">
          <mxGeometry width="50" height="50" relative="1" as="geometry">
            <mxPoint x="260" y="550" as="sourcePoint" />
            <mxPoint x="500" y="200" as="targetPoint" />
          </mxGeometry>
        </mxCell>
        <mxCell id="UZTgPrUg466q5XbxoCcg-6" value="" style="endArrow=none;dashed=1;html=1;rounded=0;entryX=0.5;entryY=1;entryDx=0;entryDy=0;startArrow=none;" edge="1" parent="1" source="UZTgPrUg466q5XbxoCcg-32" target="UZTgPrUg466q5XbxoCcg-3">
          <mxGeometry width="50" height="50" relative="1" as="geometry">
            <mxPoint x="450" y="440" as="sourcePoint" />
            <mxPoint x="449.58000000000004" y="140" as="targetPoint" />
          </mxGeometry>
        </mxCell>
        <mxCell id="UZTgPrUg466q5XbxoCcg-8" value="" style="endArrow=none;dashed=1;html=1;rounded=0;entryX=0.5;entryY=1;entryDx=0;entryDy=0;startArrow=none;" edge="1" parent="1" source="UZTgPrUg466q5XbxoCcg-29">
          <mxGeometry width="50" height="50" relative="1" as="geometry">
            <mxPoint x="54.74000000000001" y="440" as="sourcePoint" />
            <mxPoint x="54.74000000000001" y="110" as="targetPoint" />
          </mxGeometry>
        </mxCell>
        <mxCell id="UZTgPrUg466q5XbxoCcg-13" value="Choose the desired service" style="html=1;verticalAlign=bottom;endArrow=block;rounded=0;entryX=-0.013;entryY=0.493;entryDx=0;entryDy=0;entryPerimeter=0;" edge="1" parent="1">
          <mxGeometry width="80" relative="1" as="geometry">
            <mxPoint x="60" y="234" as="sourcePoint" />
            <mxPoint x="249.7399999999999" y="233.80999999999995" as="targetPoint" />
          </mxGeometry>
        </mxCell>
        <mxCell id="UZTgPrUg466q5XbxoCcg-20" value="Subscriber account information" style="html=1;verticalAlign=bottom;endArrow=block;rounded=0;exitX=-0.089;exitY=0.603;exitDx=0;exitDy=0;exitPerimeter=0;" edge="1" parent="1" source="UZTgPrUg466q5XbxoCcg-31">
          <mxGeometry width="80" relative="1" as="geometry">
            <mxPoint x="260" y="193" as="sourcePoint" />
            <mxPoint x="70" y="192" as="targetPoint" />
          </mxGeometry>
        </mxCell>
        <mxCell id="UZTgPrUg466q5XbxoCcg-22" value="Enter the subscription number&lt;br&gt;&amp;nbsp;and shipping value" style="html=1;verticalAlign=bottom;endArrow=block;rounded=0;entryX=0.004;entryY=0.788;entryDx=0;entryDy=0;entryPerimeter=0;" edge="1" parent="1">
          <mxGeometry width="80" relative="1" as="geometry">
            <mxPoint x="60" y="284" as="sourcePoint" />
            <mxPoint x="250.07999999999993" y="283.96000000000004" as="targetPoint" />
          </mxGeometry>
        </mxCell>
        <mxCell id="UZTgPrUg466q5XbxoCcg-24" value="Payment(B)" style="html=1;verticalAlign=bottom;endArrow=block;rounded=0;exitX=0;exitY=0.941;exitDx=0;exitDy=0;exitPerimeter=0;" edge="1" parent="1">
          <mxGeometry width="80" relative="1" as="geometry">
            <mxPoint x="249.9999999999999" y="309.9699999999999" as="sourcePoint" />
            <mxPoint x="70" y="310" as="targetPoint" />
          </mxGeometry>
        </mxCell>
        <mxCell id="UZTgPrUg466q5XbxoCcg-25" value="Pay the GAS fee" style="html=1;verticalAlign=bottom;endArrow=block;rounded=0;" edge="1" parent="1">
          <mxGeometry width="80" relative="1" as="geometry">
            <mxPoint x="60.00000000000005" y="360.5" as="sourcePoint" />
            <mxPoint x="440" y="360" as="targetPoint" />
          </mxGeometry>
        </mxCell>
        <mxCell id="UZTgPrUg466q5XbxoCcg-27" value="Connect Wallet" style="html=1;verticalAlign=bottom;endArrow=block;rounded=0;entryX=-0.089;entryY=0.136;entryDx=0;entryDy=0;entryPerimeter=0;" edge="1" parent="1" target="UZTgPrUg466q5XbxoCcg-31">
          <mxGeometry width="80" relative="1" as="geometry">
            <mxPoint x="60" y="160" as="sourcePoint" />
            <mxPoint x="260" y="160" as="targetPoint" />
          </mxGeometry>
        </mxCell>
        <mxCell id="UZTgPrUg466q5XbxoCcg-28" value="" style="rounded=0;whiteSpace=wrap;html=1;" vertex="1" parent="1">
          <mxGeometry x="250" y="230" width="20" height="90" as="geometry" />
        </mxCell>
        <mxCell id="UZTgPrUg466q5XbxoCcg-29" value="" style="rounded=0;whiteSpace=wrap;html=1;" vertex="1" parent="1">
          <mxGeometry x="45" y="140" width="20" height="390" as="geometry" />
        </mxCell>
        <mxCell id="UZTgPrUg466q5XbxoCcg-30" value="" style="endArrow=none;dashed=1;html=1;rounded=0;entryX=0.5;entryY=1;entryDx=0;entryDy=0;" edge="1" parent="1" target="UZTgPrUg466q5XbxoCcg-29">
          <mxGeometry width="50" height="50" relative="1" as="geometry">
            <mxPoint x="55" y="550" as="sourcePoint" />
            <mxPoint x="54.74000000000001" y="110" as="targetPoint" />
          </mxGeometry>
        </mxCell>
        <mxCell id="UZTgPrUg466q5XbxoCcg-31" value="" style="rounded=0;whiteSpace=wrap;html=1;" vertex="1" parent="1">
          <mxGeometry x="250" y="150" width="20" height="70" as="geometry" />
        </mxCell>
        <mxCell id="UZTgPrUg466q5XbxoCcg-32" value="" style="rounded=0;whiteSpace=wrap;html=1;" vertex="1" parent="1">
          <mxGeometry x="440" y="340" width="20" height="170" as="geometry" />
        </mxCell>
        <mxCell id="UZTgPrUg466q5XbxoCcg-33" value="" style="endArrow=none;dashed=1;html=1;rounded=0;entryX=0.5;entryY=1;entryDx=0;entryDy=0;" edge="1" parent="1" target="UZTgPrUg466q5XbxoCcg-32">
          <mxGeometry width="50" height="50" relative="1" as="geometry">
            <mxPoint x="450" y="550" as="sourcePoint" />
            <mxPoint x="450" y="110" as="targetPoint" />
          </mxGeometry>
        </mxCell>
        <mxCell id="UZTgPrUg466q5XbxoCcg-34" value="" style="endArrow=classic;html=1;rounded=0;exitX=0.981;exitY=0.118;exitDx=0;exitDy=0;exitPerimeter=0;entryX=1.068;entryY=0.351;entryDx=0;entryDy=0;entryPerimeter=0;" edge="1" parent="1" source="UZTgPrUg466q5XbxoCcg-32" target="UZTgPrUg466q5XbxoCcg-32">
          <mxGeometry width="50" height="50" relative="1" as="geometry">
            <mxPoint x="230" y="360" as="sourcePoint" />
            <mxPoint x="280" y="310" as="targetPoint" />
            <Array as="points">
              <mxPoint x="480" y="360" />
              <mxPoint x="480" y="400" />
            </Array>
          </mxGeometry>
        </mxCell>
        <mxCell id="UZTgPrUg466q5XbxoCcg-35" value="[ B= &quot;Buy&quot; ]&lt;br&gt;&lt;div style=&quot;text-align: left&quot;&gt;&lt;span&gt;Buy()&lt;/span&gt;&lt;/div&gt;" style="text;html=1;strokeColor=none;fillColor=none;align=center;verticalAlign=middle;whiteSpace=wrap;rounded=0;" vertex="1" parent="1">
          <mxGeometry x="480" y="365" width="70" height="30" as="geometry" />
        </mxCell>
        <mxCell id="UZTgPrUg466q5XbxoCcg-36" value="" style="rounded=0;whiteSpace=wrap;html=1;" vertex="1" parent="1">
          <mxGeometry x="250" y="395" width="20" height="55" as="geometry" />
        </mxCell>
        <mxCell id="UZTgPrUg466q5XbxoCcg-38" value="[ B= &quot;Buy&quot; ]&amp;nbsp;succeeded" style="html=1;verticalAlign=bottom;endArrow=block;rounded=0;exitX=-0.147;exitY=0.385;exitDx=0;exitDy=0;exitPerimeter=0;entryX=1.147;entryY=0.199;entryDx=0;entryDy=0;entryPerimeter=0;" edge="1" parent="1" source="UZTgPrUg466q5XbxoCcg-32" target="UZTgPrUg466q5XbxoCcg-36">
          <mxGeometry width="80" relative="1" as="geometry">
            <mxPoint x="419.9999999999999" y="409.9999999999999" as="sourcePoint" />
            <mxPoint x="290" y="410" as="targetPoint" />
          </mxGeometry>
        </mxCell>
        <mxCell id="UZTgPrUg466q5XbxoCcg-41" value="Balance is charged" style="html=1;verticalAlign=bottom;endArrow=block;rounded=0;entryX=0.987;entryY=0.769;entryDx=0;entryDy=0;entryPerimeter=0;" edge="1" parent="1" target="UZTgPrUg466q5XbxoCcg-29">
          <mxGeometry width="80" relative="1" as="geometry">
            <mxPoint x="250" y="440" as="sourcePoint" />
            <mxPoint x="90" y="440" as="targetPoint" />
          </mxGeometry>
        </mxCell>
        <mxCell id="UZTgPrUg466q5XbxoCcg-42" value="[ B= &quot;Buy&quot; ]&amp;nbsp;Error" style="html=1;verticalAlign=bottom;endArrow=block;rounded=0;exitX=0;exitY=0.944;exitDx=0;exitDy=0;exitPerimeter=0;entryX=1.147;entryY=0.199;entryDx=0;entryDy=0;entryPerimeter=0;" edge="1" parent="1" source="UZTgPrUg466q5XbxoCcg-32">
          <mxGeometry width="80" relative="1" as="geometry">
            <mxPoint x="229.11999999999995" y="499.99999999999983" as="sourcePoint" />
            <mxPoint x="64.99999999999994" y="500.49500000000006" as="targetPoint" />
          </mxGeometry>
        </mxCell>
      </root>
    </mxGraphModel>
  </diagram>
</mxfile>
